<svg id='basket' viewBox="0 0 27 27"
	xmlns="http://www.w3.org/2000/svg">
	<g clip-path="url(#clip0_1058_1693)">
		<path d="M10 24.4444C10.6136 24.4444 11.1111 23.9469 11.1111 23.3333C11.1111 22.7196 10.6136 22.2222 10 22.2222C9.38635 22.2222 8.88889 22.7196 8.88889 23.3333C8.88889 23.9469 9.38635 24.4444 10 24.4444Z" stroke-width="1.6" stroke-linecap="round" stroke-linejoin="round" />
		<path d="M22.2222 24.4444C22.8359 24.4444 23.3333 23.9469 23.3333 23.3333C23.3333 22.7196 22.8359 22.2222 22.2222 22.2222C21.6086 22.2222 21.1111 22.7196 21.1111 23.3333C21.1111 23.9469 21.6086 24.4444 22.2222 24.4444Z" stroke-width="1.6" stroke-linecap="round" stroke-linejoin="round" />
		<path d="M1.11111 1.11108H5.55556L8.53334 15.9889C8.63494 16.5004 8.91323 16.9599 9.3195 17.287C9.72576 17.614 10.2341 17.7877 10.7556 17.7778H21.5556C22.077 17.7877 22.5854 17.614 22.9916 17.287C23.3979 16.9599 23.6762 16.5004 23.7778 15.9889L25.5556 6.66664H6.66667" stroke-width="1.6" stroke-linecap="round" stroke-linejoin="round" />
	</g>
	<defs>
		<clipPath id="clip0_1058_1693">
			<rect width="26.6667" height="26.6667" fill="white" />
		</clipPath>
	</defs>
</svg>