<svg xmlns="http://www.w3.org/2000/svg" width="24" height="24" fill="none" viewBox="0 0 24 24"><g fill="#fff" clip-path="url(#a)"><path d="M0 2.7c0-.499.401-.9.9-.9h1.699a2.1 2.1 0 0 1 2.066 1.725l.015.075h15.476a1.2 1.2 0 0 1 1.178 1.421l-1.009 5.385A7.2 7.2 0 0 0 18.6 10.2a7.2 7.2 0 0 0-5.85 3H6.424l.191 1.061A.9.9 0 0 0 7.5 15h4.309a7.2 7.2 0 0 0-.386 1.8H7.5a2.7 2.7 0 0 1-2.655-2.216L2.895 3.847a.3.3 0 0 0-.296-.247H.9a.9.9 0 0 1-.9-.9m9.6 17.1a1.8 1.8 0 1 1-3.6 0 1.8 1.8 0 0 1 3.6 0"/><path d="M18.6 12a5.4 5.4 0 1 1 0 10.8 5.4 5.4 0 0 1 0-10.8m3 5.4c0-.33-.27-.6-.6-.6h-1.8V15c0-.33-.27-.6-.6-.6s-.6.27-.6.6v1.8h-1.8c-.33 0-.6.27-.6.6s.27.6.6.6H18v1.8c0 .33.27.6.6.6s.6-.27.6-.6V18H21c.33 0 .6-.27.6-.6"/></g><defs><clipPath id="a"><path fill="#fff" d="M0 0h24v24H0z"/></clipPath></defs></svg>