<svg viewBox="0 0 19.4958 19.4956" xmlns="http://www.w3.org/2000/svg" xmlns:xlink="http://www.w3.org/1999/xlink" width="19.495850" height="19.495605" fill="none">
	<mask id="mask_0" width="17.871195" height="17.871195" x="0.812256" y="0.811523" maskUnits="userSpaceOnUse">
		<g filter="url(#pixso_custom_mask_type_luminance)">
			<g id="Group">
				<path id="Vector" d="M17.426 14.3214C18.2247 12.9834 18.6837 11.4191 18.6837 9.74761C18.6837 4.81262 14.6831 0.812012 9.7481 0.812012C4.81311 0.812012 0.8125 4.81262 0.8125 9.74761C0.8125 14.6826 4.81311 18.6832 9.7481 18.6832C11.4231 18.6832 12.9905 18.2223 14.3304 17.4204L18.5601 18.5538L17.426 14.3214Z" fill="rgb(255,255,255)" fill-rule="evenodd" />
			</g>
		</g>
	</mask>
	<defs>
		<clipPath id="clipPath_2">
			<rect width="19.495850" height="19.495850" x="0.000244" y="-0.000488" fill="rgb(255,255,255)" />
		</clipPath>
		<filter id="pixso_custom_mask_type_luminance">
			<feColorMatrix type="matrix" values="1 0 0 0 0 0 1 0 0 0 0 0 1 0 0 0 0 0 1 0 " />
		</filter>
	</defs>
	<rect id="649995232c06e83a19727c40_comment-insta.svg fill" width="19.495850" height="19.495850" x="0.000000" y="-0.000488" />
	<g id="649995232c06e83a19727c40_comment-insta.svg" clip-path="url(#clipPath_2)" customFrame="url(#clipPath_2)">
		<rect id="649995232c06e83a19727c40_comment-insta.svg" width="19.495850" height="19.495850" x="0.000244" y="-0.000488" />
		<g id="Mask group" mask="url(#mask_0)">
			<path id="Vector" d="M17.425 14.3207L16.1696 13.5712C15.967 13.9105 15.9104 14.3174 16.0127 14.6991L17.425 14.3207ZM14.3294 17.4197L14.7079 16.0073C14.3256 15.9049 13.9181 15.9619 13.5785 16.1651L14.3294 17.4197ZM18.5591 18.5531L18.1806 19.9654C18.6853 20.1007 19.2237 19.9564 19.593 19.587C19.9624 19.2176 20.1067 18.6793 19.9715 18.1746L18.5591 18.5531ZM17.2206 9.74691C17.2206 11.1473 16.8368 12.4535 16.1696 13.5712L18.6806 15.0702C19.6108 13.5119 20.1449 11.6896 20.1449 9.74691L17.2206 9.74691ZM9.74715 2.2735C13.8746 2.2735 17.2206 5.61946 17.2206 9.74691L20.1449 9.74691C20.1449 4.00437 15.4897 -0.650879 9.74715 -0.650879L9.74715 2.2735ZM2.27374 9.74691C2.27374 5.61946 5.6197 2.2735 9.74715 2.2735L9.74715 -0.650879C4.00462 -0.650879 -0.650635 4.00437 -0.650635 9.74691L2.27374 9.74691ZM9.74715 17.2203C5.6197 17.2203 2.27374 13.8743 2.27374 9.74691L-0.650635 9.74691C-0.650635 15.4894 4.00462 20.1447 9.74715 20.1447L9.74715 17.2203ZM13.5785 16.1651C12.4593 16.8349 11.1504 17.2203 9.74715 17.2203L9.74715 20.1447C11.6939 20.1447 13.5198 19.6083 15.0803 18.6744L13.5785 16.1651ZM13.9509 18.8321L18.1806 19.9654L18.9376 17.1407L14.7079 16.0073L13.9509 18.8321ZM19.9715 18.1746L18.8374 13.9423L16.0127 14.6991L17.1467 18.9315L19.9715 18.1746Z" fill="rgb(71,84,103)" fill-rule="nonzero" />
		</g>
	</g>
</svg>
