<svg id='instagram' viewBox="0 0 21.4697 21.4697" xmlns="http://www.w3.org/2000/svg" xmlns:xlink="http://www.w3.org/1999/xlink" width="21.469727" height="21.469727" fill="none">
	<rect id="InstagramLogo" width="21.469730" height="21.469730" x="0.000000" y="0.000000" fill="rgb(255,255,255)" fill-opacity="0" />
	<path id="Vector" />
	<path id="Vector" d="M13.4187 10.7353C13.4187 11.2661 13.2613 11.7849 12.9664 12.2263C12.6716 12.6676 12.2524 13.0116 11.762 13.2147C11.2716 13.4178 10.732 13.471 10.2115 13.3674C9.69086 13.2639 9.21267 13.0083 8.83734 12.6329C8.46202 12.2576 8.20642 11.7794 8.10287 11.2588C7.99932 10.7382 8.05246 10.1986 8.25559 9.70825C8.45871 9.21786 8.80269 8.79872 9.24402 8.50383C9.68536 8.20894 10.2042 8.05155 10.735 8.05155C11.4468 8.05155 12.1294 8.33429 12.6327 8.83759C13.136 9.34088 13.4187 10.0235 13.4187 10.7353ZM19.4571 6.70969L19.4571 14.7608C19.4558 16.006 18.9605 17.1998 18.0801 18.0803C17.1996 18.9608 16.0058 19.456 14.7606 19.4573L6.70944 19.4573C5.46426 19.456 4.27046 18.9608 3.38998 18.0803C2.50951 17.1998 2.01427 16.006 2.01294 14.7608L2.01294 6.70969C2.01427 5.46451 2.50951 4.27071 3.38998 3.39023C4.27046 2.50975 5.46426 2.01452 6.70944 2.01318L14.7606 2.01318C16.0058 2.01452 17.1996 2.50975 18.0801 3.39023C18.9605 4.27071 19.4558 5.46451 19.4571 6.70969ZM14.7606 10.7353C14.7606 9.93908 14.5245 9.16077 14.0822 8.49877C13.6398 7.83677 13.0111 7.3208 12.2755 7.01612C11.54 6.71143 10.7306 6.63171 9.94967 6.78704C9.16878 6.94237 8.45149 7.32576 7.88851 7.88875C7.32552 8.45174 6.94212 9.16903 6.78679 9.94991C6.63147 10.7308 6.71119 11.5402 7.01587 12.2758C7.32056 13.0114 7.83653 13.6401 8.49853 14.0824C9.16053 14.5247 9.93883 14.7608 10.735 14.7608C11.8023 14.7597 12.8256 14.3352 13.5803 13.5805C14.335 12.8258 14.7595 11.8026 14.7606 10.7353ZM16.7734 5.70329C16.7734 5.50425 16.7144 5.30967 16.6038 5.14417C16.4932 4.97867 16.336 4.84968 16.1521 4.77351C15.9682 4.69734 15.7659 4.67741 15.5706 4.71624C15.3754 4.75507 15.1961 4.85092 15.0554 4.99167C14.9146 5.13241 14.8188 5.31173 14.7799 5.50696C14.7411 5.70218 14.761 5.90453 14.8372 6.08842C14.9134 6.27232 15.0424 6.4295 15.2079 6.54008C15.3734 6.65066 15.5679 6.70969 15.767 6.70969C16.0339 6.70969 16.2899 6.60366 16.4786 6.41492C16.6673 6.22619 16.7734 5.97021 16.7734 5.70329Z" fill="rgb(255,255,255)" fill-rule="nonzero" />
</svg>
