<svg id='telegram' viewBox="0 0 21.4697 21.4697"
	xmlns="http://www.w3.org/2000/svg"
	xmlns:xlink="http://www.w3.org/1999/xlink" width="21.469727" height="21.469727" fill="none">
	<rect id="TelegramLogo" width="21.469730" height="21.469730" x="0.000000" y="0.000000" fill="rgb(255,255,255)" fill-opacity="0" />
	<path id="Vector" />
	<path id="Vector" d="M19.1955 2.1967C19.0916 2.10693 18.9651 2.04723 18.8298 2.02403C18.6944 2.00083 18.5552 2.015 18.4273 2.06503L1.43102 8.71645C1.19014 8.81012 0.986215 8.9795 0.849933 9.19909C0.713651 9.41869 0.652394 9.67661 0.675383 9.93403C0.698372 10.1915 0.804364 10.4344 0.977401 10.6264C1.15044 10.8184 1.38115 10.9489 1.63482 10.9984L6.03863 11.8631L6.03863 16.7735C6.03776 17.0409 6.11724 17.3025 6.26678 17.5243C6.41631 17.746 6.629 17.9177 6.87729 18.0172C7.12519 18.1184 7.39781 18.1427 7.65971 18.0869C7.92161 18.0312 8.16066 17.8979 8.34578 17.7044L10.4693 15.5021L13.8382 18.4508C14.0812 18.6664 14.3947 18.7857 14.7196 18.7863C14.862 18.7861 15.0035 18.7638 15.1389 18.72C15.3603 18.6498 15.5594 18.5228 15.7164 18.3516C15.8734 18.1805 15.9828 17.9712 16.0338 17.7446L19.4379 2.93556C19.4684 2.802 19.4619 2.66267 19.4192 2.53251C19.3765 2.40235 19.2992 2.28627 19.1955 2.1967ZM14.7213 17.4444L7.78724 11.3641L17.7673 4.21116L14.7213 17.4444Z" fill="rgb(255,255,255)" fill-rule="nonzero" />
</svg>
