<svg id='telephone' viewBox="0 0 21.4697 21.4697"
	xmlns="http://www.w3.org/2000/svg"
	xmlns:xlink="http://www.w3.org/1999/xlink" width="21.469727" height="21.469727" >
	<rect id="Phone" width="21.469730" height="21.469730" x="-0.000244" y="-0.000488" fill="rgb(255,255,255)" fill-opacity="0" />
	<path id="Vector" />
	<path id="Vector" d="M19.4468 14.683C19.2972 15.8194 18.7391 16.8626 17.8767 17.6176C17.0143 18.3726 15.9065 18.7878 14.7603 18.7858C8.10135 18.7858 2.6836 13.368 2.6836 6.70903C2.68155 5.56282 3.0968 4.45506 3.8518 3.59264C4.6068 2.73023 5.64992 2.17213 6.78633 2.02259C7.0737 1.9875 7.36471 2.04629 7.61592 2.19019C7.86714 2.33408 8.06507 2.55536 8.18019 2.821L9.95144 6.77528L9.95144 6.78535C10.0396 6.98868 10.076 7.21068 10.0574 7.43152C10.0388 7.65235 9.96581 7.86514 9.84493 8.05089C9.82983 8.07353 9.8139 8.0945 9.79713 8.11547L8.05103 10.1853C8.67919 11.4617 10.0143 12.7851 11.3076 13.415L13.3489 11.6781C13.3689 11.6612 13.3899 11.6456 13.4118 11.6311C13.5973 11.5073 13.8109 11.4318 14.033 11.4113C14.2551 11.3908 14.4789 11.426 14.684 11.5137L14.6949 11.5188L18.6458 13.2892C18.9119 13.4039 19.1338 13.6016 19.2781 13.8529C19.4225 14.1041 19.4817 14.3954 19.4468 14.683Z" fill-rule="nonzero" />
</svg>
