<svg id='wishlist' viewBox="0 0 27 27"
	xmlns="http://www.w3.org/2000/svg">
	<path d="M23.1556 5.12222C22.5881 4.55444 21.9142 4.10405 21.1726 3.79675C20.431 3.48946 19.6361 3.3313 18.8333 3.3313C18.0306 3.3313 17.2357 3.48946 16.4941 3.79675C15.7524 4.10405 15.0786 4.55444 14.5111 5.12222L13.3333 6.29999L12.1556 5.12222C11.0092 3.97589 9.45449 3.33189 7.83334 3.33189C6.21219 3.33189 4.65744 3.97589 3.51112 5.12222C2.36479 6.26854 1.72079 7.82329 1.72079 9.44444C1.72079 11.0656 2.36479 12.6203 3.51112 13.7667L4.68889 14.9444L13.3333 23.5889L21.9778 14.9444L23.1556 13.7667C23.7233 13.1992 24.1737 12.5253 24.481 11.7837C24.7883 11.0421 24.9465 10.2472 24.9465 9.44444C24.9465 8.64167 24.7883 7.84678 24.481 7.10515C24.1737 6.36353 23.7233 5.68972 23.1556 5.12222V5.12222Z" stroke-width="1.6" stroke-linecap="round" stroke-linejoin="round" />
</svg>